<svg xmlns="http://www.w3.org/2000/svg" width="1240" height="1240"><path d="M213.721 283.643c-.291.471-3.16.809-6.375.751-4.924-.089-7.028.498-13.346 3.723-4.125 2.106-8.4 4.634-9.5 5.617-4.11 3.675-9.656 11.374-11.877 16.484-4.255 9.792-3.802 7.864-5.16 21.957-1.571 16.288 4.232 33.877 14.827 44.95 7.39 7.722 13.025 10.205 24.21 10.665 5.689.233 10.104-.085 12-.866 1.65-.68 3.45-1.278 4-1.33.55-.052 2.617-1.332 4.594-2.844 1.977-1.512 4.115-2.75 4.75-2.75.636 0 1.156-.62 1.156-1.378 0-.757.749-1.995 1.666-2.75 4.955-4.083 11.655-18.642 12.96-28.161.355-2.591.922-4.711 1.26-4.71.716 0 .534-10.79-.219-13.001-.281-.825-.801-3.3-1.155-5.5-.992-6.161-4.572-15.552-7.693-20.18-1.551-2.299-2.844-4.549-2.875-5-.097-1.42-10.211-8.867-15.934-11.731-3.019-1.511-5.776-3.21-6.125-3.775-.349-.565-.873-.642-1.164-.171m418.534 46.328c-10.338 4.692-18.113 13.933-21.25 25.255-4.722 17.038-.43 37.274 10.003 47.16 6.433 6.095 13.616 8.791 23.354 8.764 5.114-.014 9.616-.595 11.721-1.513 1.879-.82 4.218-1.74 5.197-2.044 1.566-.487 1.701-1.368 1.124-7.323-.36-3.724-.985-7.134-1.388-7.578-.403-.445-3.482.118-6.843 1.25-17.807 5.999-28.779-2.067-29.962-22.027-.753-12.72 3.35-22.568 11.064-26.557 4.156-2.149 13.318-2.065 19.562.18 3.216 1.157 5.495 1.5 6.036.91.743-.809 2.466-14.448 1.825-14.448-.124 0-2.689-.9-5.698-2-7.328-2.679-18.878-2.692-24.745-.029m56.211.393c-7.411 3.451-15.783 13.113-18.64 21.513-3.012 8.854-3.239 25.897-.455 34.123 5.593 16.525 16.432 25.158 31.587 25.158 11.523 0 19.177-4.146 25.673-13.906 5.952-8.942 7.379-14.072 7.489-26.92.108-12.681-1.371-18.658-6.639-26.832-4.157-6.45-7.757-9.745-14.126-12.928-7.045-3.521-17.585-3.609-24.889-.208m142.034-.001c-4.789 2.244-12.162 9.14-15.943 14.91-.982 1.498-2.634 5.956-3.671 9.908-5.933 22.6 2.716 46.461 19.534 53.89 7.245 3.2 18.523 3.005 25.317-.438 8.587-4.351 14.404-11.455 18.265-22.307 2.785-7.827 2.952-24.758.321-32.523-3.58-10.564-10.093-18.605-18.544-22.897-7.616-3.868-17.722-4.085-25.279-.543m180.978.037c-6.684 3.042-14.498 10.823-17.675 17.6-8.855 18.893-4.371 44.992 9.708 56.5 8.355 6.83 22.178 8.748 33.489 4.647 5.943-2.154 5.675-1.591 5.172-10.897-.34-6.286-1.027-6.657-7.988-4.312-16.371 5.515-26.824-.957-30.144-18.666-1.862-9.932 2.342-23.957 8.428-28.116 6.454-4.41 12.768-4.796 22.759-1.389 2.6.886 4.99 1.349 5.311 1.028 1.244-1.243 2.365-13.207 1.353-14.426-3.837-4.623-21.996-5.799-30.413-1.969m-452.239 39.331l.261 39.769 22.292.269 22.293.269-.293-7.769-.292-7.769-15.25-.276-15.25-.276V376.063l11.75-.281 11.75-.282.309-5.447c.583-10.271.85-10.053-12.328-10.053H573v-14.948l15.25-.276 15.25-.276v-14l-22.261-.269-22.262-.269.262 39.769m185.428-39.064c-.367.366-.667 17.826-.667 38.8 0 28.326.309 38.442 1.2 39.333.66.66 3.81 1.2 7 1.2h5.8l.017-26.25c.016-25.91.04-26.211 1.856-23.25 2.435 3.971 18.621 32.516 22.397 39.5 5.687 10.515 5.258 10.134 11.036 9.8l5.194-.3.262-39.796.261-39.796-6.761.296-6.762.296-.279 23.5-.278 23.5-4.076-7c-2.242-3.85-5.125-8.875-6.405-11.166a5353.25 5353.25 0 00-9.454-16.75L757.883 330h-6.275c-3.451 0-6.575.3-6.941.667m146.981 2.583c-.617 3.485-1.641 12.013-4.112 34.25-.855 7.7-1.999 17.15-2.542 21-.543 3.85-1.278 10.262-1.634 14.25l-.647 7.25h6.584c3.622 0 6.821-.382 7.109-.849.505-.816 1.398-8.751 3.918-34.82.647-6.694 1.507-12.5 1.913-12.904.405-.403 4.071 6.256 8.147 14.798 4.076 8.542 7.843 15.797 8.37 16.123.527.326 2.683-3.107 4.791-7.628 12.361-26.518 12.261-26.341 12.798-22.625.841 5.813 2.578 20.926 3.669 31.905 1.704 17.155 1.09 16 8.508 16 3.499 0 6.573-.342 6.832-.76.258-.418.06-4.13-.441-8.25-.5-4.119-1.346-11.54-1.88-16.49-.534-4.95-1.432-12.375-1.996-16.5-1.007-7.369-3.788-30.093-4.283-35-.232-2.305-.697-2.523-5.969-2.799l-5.717-.299-4.115 8.799c-2.263 4.839-5.166 11.274-6.451 14.299-1.285 3.025-2.989 6.748-3.787 8.274l-1.451 2.775-1.631-2.489c-.897-1.369-1.631-2.759-1.631-3.089 0-.329-1.066-2.933-2.368-5.785A538.545 538.545 0 01908.924 342c-4.805-11.299-5.472-12-11.411-12-5.184 0-5.302.065-5.865 3.25M966 370.048v40.047l6.25-.297 6.25-.298.261-39.75.262-39.75H966v40.048M91.25 335.662c-.687.278-1.25 1.127-1.25 1.887 0 1.55 4.365 8.64 7.665 12.451 4.856 5.607 10.535 12.813 14.22 18.04 2.147 3.047 4.6 6.118 5.45 6.823.851.706 1.293 1.944.983 2.751-.31.807-.16 1.337.332 1.177 1.678-.545 16.694 17.844 15.779 19.324-.301.487.155.885 1.012.885s1.561.337 1.564.75c.002.413 1.26 2.1 2.796 3.75 3.592 3.86 9.199 12.046 9.199 13.43 0 .589.563 1.099 1.25 1.134 1.528.077 14.801 16.794 16.402 20.656.634 1.529 1.534 2.65 2 2.49.467-.159.993.635 1.169 1.765.177 1.13.701 1.82 1.165 1.534.464-.287 1.799 1.025 2.966 2.914 1.168 1.89 2.484 3.58 2.923 3.756.44.177 2.11 2.123 3.712 4.324 5.875 8.075 21.008 27.048 24.277 30.438l3.364 3.487 2.636-3.042c4.043-4.666 20.319-25.447 23.015-29.386 3.803-5.556 10.269-12.526 11.334-12.219.536.155.774-.295.528-1-.246-.704.725-2.687 2.156-4.406 1.432-1.719 4.784-5.882 7.449-9.25 2.666-3.369 5.253-6.125 5.75-6.125.497 0 .904-.626.904-1.392 0-.765 1.362-3.128 3.026-5.25 1.665-2.122 5.377-6.846 8.25-10.498a9553.002 9553.002 0 0024.888-31.809c3.665-4.703 8.297-10.576 10.294-13.051 16.833-20.86 19.084-24.413 16.505-26.044-.804-.509-9.39-.932-19.078-.941-16.43-.014-17.796.127-20.303 2.099-2.632 2.07-8.102 8.771-14.082 17.25-5.098 7.229-11.729 14.613-12.624 14.059-.469-.29-.624.069-.345.798.28.729-1.246 3.206-3.39 5.506-2.145 2.3-3.723 4.357-3.508 4.573.215.215-1.345 2.373-3.466 4.795-2.122 2.423-4.393 5.417-5.047 6.655-.655 1.238-1.876 2.25-2.714 2.25-.838 0-1.31.346-1.048.77.523.847-6.169 10.119-12.086 16.742-2.075 2.323-4.222 4.908-4.772 5.746-4.986 7.593-9.214 12.653-10.25 12.268-.716-.265-1.25.325-1.25 1.383 0 1.015-.683 2.413-1.519 3.107-1.962 1.628-3.831-.005-11.36-9.918-8.258-10.875-10.011-13.106-16.621-21.169-3.3-4.026-7.125-8.971-8.5-10.99-1.375-2.02-3.985-5.419-5.799-7.555-1.815-2.136-7.215-8.915-12-15.064a10283.648 10283.648 0 00-11.694-15c-1.646-2.101-2.853-4.428-2.683-5.17.17-.743-.136-1.075-.681-.739-.544.337-1.992-.855-3.216-2.649-1.224-1.794-3.758-4.724-5.632-6.512l-3.406-3.25-17.695.079c-9.732.043-18.256.306-18.944.583m605.025 8.287c-7.112 1.737-11.016 6.254-13.871 16.046-3.615 12.399.801 28.697 9.093 33.556 5.105 2.992 13.388 3.245 18.003.552 4.601-2.686 8.716-9.602 10.14-17.04 2.379-12.433-1.933-27.057-9.196-31.193-3.69-2.1-9.955-2.95-14.169-1.921m142.225-.035c-6.169 1.546-9.456 4.066-12.202 9.359-2.457 4.735-2.716 6.261-2.755 16.227-.041 10.378.127 11.309 2.957 16.477 3.795 6.928 8.762 9.983 16.27 10.007 5.847.018 11.9-3.024 14.788-7.432 4.273-6.521 5.889-20.466 3.43-29.597-1.402-5.205-5.474-11.217-8.988-13.269-3.225-1.883-9.679-2.73-13.5-1.772m-381.791 2.71c-.39.39-.709 73.759-.709 163.043V672h14.006l-.253-162.75-.253-162.75-6.041-.292c-3.323-.161-6.36.026-6.75.416M68.607 363.582c-.334.87-.607 12.022-.607 24.784v23.201l3.35 5.2c1.842 2.86 3.666 4.883 4.053 4.497.386-.387.406.071.043 1.016-.379.987-.189 1.72.445 1.72C77.353 424 90 440.036 90 441.89c0 .794.278 1.165.618.825.34-.34 3.141 2.623 6.226 6.584l6.386 8.201c.429.55 6.599 8.425 13.712 17.5 7.114 9.075 13.862 17.696 14.996 19.158 1.134 1.462 2.062 3.15 2.062 3.75 0 .601.425 1.092.943 1.092C136.16 499 146 512.043 146 513.655c0 .673-1.687 3.227-3.75 5.677-2.062 2.449-6.225 7.739-9.25 11.756-3.025 4.016-6.488 8.335-7.696 9.599-1.208 1.263-3.524 4.213-5.147 6.555-1.623 2.342-4.725 6.167-6.894 8.501-2.169 2.334-3.762 4.425-3.54 4.646.221.222-1.651 2.715-4.16 5.54-2.51 2.826-4.563 5.487-4.563 5.915 0 .427-1.269 2.099-2.82 3.716-1.552 1.617-4.268 4.965-6.037 7.44-1.769 2.475-4.887 6.584-6.93 9.13-4.678 5.833-7.051 8.878-12.7 16.295L68 614.35v24.202c0 19.4.275 24.431 1.385 25.352 1.332 1.106 6.737-5.124 24.399-28.127C108.969 616 119.653 603 120.722 603c.703 0 1.278-.67 1.278-1.489 0-1.42 6.964-11.19 11.404-15.998 1.153-1.248 2.911-3.459 3.908-4.912 1.003-1.461 2.307-2.336 2.92-1.958.711.44.884.103.483-.942-.401-1.046.253-2.318 1.831-3.558 1.349-1.062 2.454-2.32 2.454-2.796s3.713-5.438 8.25-11.027c4.537-5.589 10.59-13.235 13.449-16.991 2.86-3.756 9.014-11.766 13.676-17.801 4.662-6.034 8.672-11.994 8.911-13.243.42-2.198-1.39-4.848-2.532-3.706-.308.309-2.036-1.608-3.839-4.259-1.803-2.651-4.996-6.796-7.097-9.211-2.1-2.415-3.818-5.151-3.818-6.081 0-.929-1.14-2.3-2.534-3.046s-3.488-2.9-4.654-4.786c-1.166-1.886-3.738-5.361-5.716-7.72a377.683 377.683 0 01-7.355-9.134 2773.348 2773.348 0 00-8.5-10.874 1122.58 1122.58 0 01-7.009-9c-3.683-4.818-12.919-16.583-17.246-21.968-7.834-9.749-10.541-13.22-15.262-19.573-2.626-3.535-5.918-7.777-7.314-9.427-9.101-10.753-12.517-15.273-13.036-17.25-.325-1.238-.993-2.25-1.483-2.25-.491 0-2.99-2.7-5.553-6-4.762-6.133-6.657-7.216-7.731-4.418m269.838 5.812a988.246 988.246 0 00-11.945 15.23c-3.3 4.309-7.209 9.088-8.687 10.619-1.478 1.532-2.939 3.577-3.246 4.546-.307.969-2.029 3.325-3.826 5.236-1.797 1.911-6.637 7.854-10.754 13.205-4.118 5.352-9.212 11.877-11.32 14.5-3.565 4.436-11.364 14.452-17.983 23.093-1.549 2.022-3.799 4.812-5 6.2s-5.559 7.013-9.684 12.5c-8.039 10.694-8.934 11.636-10.269 10.811-.476-.294-.739.073-.586.816.295 1.429-4.325 9.225-6.127 10.339-.584.361-2.942 3.211-5.24 6.334-2.298 3.122-4.763 6.272-5.478 6.998-2.289 2.327-1.425 4.756 4.194 11.796 3.022 3.786 5.497 7.268 5.5 7.739.003.471 1.158 1.763 2.567 2.87 1.408 1.108 2.322 2.636 2.031 3.394-.291.759-.03 1.38.579 1.38 1.24 0 .968-.307 9.632 10.881 3.466 4.477 6.03 8.58 5.698 9.118-.333.538-.019.774.697.524s2.652 1.369 4.302 3.598c7.986 10.791 10.574 14.169 17.935 23.413l11.313 14.21c1.857 2.335 3.097 4.697 2.755 5.25-.341.554-.032 1.009.688 1.013 1.326.007 8.689 8.435 13.616 15.586 1.481 2.149 3.256 4.267 3.943 4.707.688.44 1.25 1.288 1.25 1.885s1.014 2.037 2.254 3.2c3.671 3.444 13.746 16.847 13.746 18.286 0 .731.431 1.329.957 1.329s3.502 3.15 6.613 7c3.11 3.85 6.259 7 6.997 7 2.166 0 2.572-5.19 2.243-28.697l-.31-22.196-3.055-3.304c-1.68-1.816-4.328-5.216-5.886-7.553-1.557-2.337-3.22-4.25-3.695-4.25-.475 0-.864-.637-.864-1.417 0-.779-.337-1.566-.75-1.75-.413-.183-3-3.202-5.75-6.708-2.75-3.506-6.16-7.781-7.577-9.5-1.418-1.719-3.957-5.15-5.644-7.625-1.687-2.475-4.239-5.591-5.673-6.924-1.433-1.334-2.606-2.815-2.606-3.292 0-.477-.939-1.861-2.087-3.076-1.918-2.03-19.066-23.528-24.913-31.234a2328.297 2328.297 0 00-5.75-7.534c-1.788-2.332-3.248-4.96-3.245-5.84.003-.88 4.12-6.775 9.149-13.1 5.028-6.325 11.557-14.65 14.508-18.5 2.951-3.85 9.616-12.4 14.813-19a5709.78 5709.78 0 0016.449-21c3.851-4.95 9.72-12.375 13.042-16.5 10.881-13.51 10.026-10.415 10.03-36.316.004-21.29-.57-26.684-2.836-26.684-.424 0-3.445 3.327-6.715 7.394M58.438 462.868C49.46 465.933 41.623 473.236 35.761 484c-5.336 9.8-7.119 18.629-6.506 32.217.57 12.617 2.412 19.281 7.846 28.394 6.191 10.382 16.848 18.59 25.942 19.981 2.451.374 5.02 1.125 5.707 1.667.84.663 1.739.58 2.741-.251.82-.681 2.845-1.039 4.5-.796 1.655.243 3.009.1 3.009-.318 0-.417.942-1.058 2.094-1.424 7.377-2.341 18.663-13.589 23.057-22.978 4.564-9.754 5.824-15.812 5.837-28.067.01-9.089-.416-12.317-2.373-18-3.784-10.99-7.476-17.066-14.179-23.336-10.043-9.395-22.788-12.389-34.998-8.221m278.062-.463c-6.216 1.778-9.544 3.969-15.599 10.269-6.21 6.462-8.583 10.177-11.705 18.326-4.271 11.149-5.079 21.265-2.753 34.469.773 4.383 1.187 8.32.922 8.75-.266.429-.035.781.513.781s2.383 2.816 4.077 6.257 5.321 8.729 8.059 11.75c2.738 3.021 4.98 5.857 4.982 6.302.002.445.457.529 1.011.187.554-.343 1.276.078 1.605.935.329.857.946 1.342 1.371 1.079.426-.263 2.291.302 4.146 1.256 2.537 1.305 5.845 1.734 13.371 1.734 9.82 0 10.112-.068 16.204-3.795C377.417 551.707 387 533.096 387 513.523c0-11.774-4.289-27.629-8.75-32.344-.687-.727-1.25-1.815-1.25-2.418 0-.604-2.812-3.718-6.25-6.92-10.361-9.655-22.14-12.899-34.25-9.436m249 1.656c-7.604.924-13.517 4.083-19.124 10.218-5.719 6.257-7.652 9.845-9.847 18.271-2.883 11.068-1.298 26.954 3.67 36.799 2.993 5.931 9.774 12.707 15.301 15.293 8.422 3.939 27.988 2.908 33.959-1.789l2.541-1.998v-35.921l-11.25.283-11.25.283-.298 6.25-.297 6.25H599v13l-3.75.201c-12.943.692-18.188-1.778-22.318-10.506-2.573-5.439-2.928-7.293-2.909-15.195.029-12.539 3.622-20.136 11.477-24.268 4.051-2.131 13.633-2.024 20.773.232 3.175 1.003 6.006 1.591 6.291 1.306.285-.286.612-3.814.727-7.842l.209-7.323-4.5-1.67c-5.391-2.002-12.682-2.702-19.5-1.874m63-.016c-6.393.704-11.931 3.659-17.095 9.122-8.916 9.435-11.572 16.855-11.572 32.333 0 19.159 6.689 31.977 20.384 39.06 6.791 3.513 18.824 3.5 25.566-.028 13.994-7.323 20.53-19.75 20.53-39.032 0-18.698-5.709-30.036-19.247-38.224-4.943-2.99-11.071-4.056-18.566-3.231m446-.033c-12.185 1.407-24.061 12.266-28.042 25.641-2.391 8.034-2.347 24.867.085 32.347 3.185 9.797 10.064 18.107 18.674 22.56 6.395 3.308 19.72 3.485 27.264.362l5.019-2.077-.335-6.986c-.39-8.153-1.22-8.863-7.417-6.356-2.336.946-6.948 1.745-10.248 1.776-8.571.082-13.657-2.737-17.226-9.545-2.508-4.784-2.744-6.181-2.746-16.234-.002-9.318.325-11.614 2.134-15.013 3.404-6.392 6.901-9.254 12.808-10.481 5.465-1.134 7.595-.908 15.845 1.685 2.648.832 5.121 1.206 5.496.832.374-.375.911-3.787 1.193-7.583l.513-6.901-4.508-1.898c-5.274-2.219-11.516-2.937-18.509-2.129m-405.499 2.738c.001.962 2.716 10.75 6.034 21.75a9528.4 9528.4 0 018.108 27c3.157 10.638 7.922 25.726 8.922 28.25.786 1.983 1.602 2.25 6.871 2.25h5.978l3.134-10.25c1.724-5.638 3.816-12.5 4.649-15.25.834-2.75 2.095-6.8 2.804-9 .708-2.2 2.08-6.7 3.048-10s2.346-7.8 3.064-10c4.969-15.242 7.442-24.845 6.613-25.674-.514-.514-3.52-.798-6.68-.63l-5.746.304-3.435 11.5c-3.652 12.226-9.478 31.24-12.096 39.48l-1.582 4.98-1.726-5.48c-.949-3.014-2.5-8.18-3.447-11.48a903.656 903.656 0 00-6.013-20c-.687-2.2-2.06-6.925-3.05-10.5-.991-3.575-2.228-7.062-2.749-7.75-.569-.751-3.294-1.25-6.824-1.25-4.932 0-5.878.282-5.877 1.75M756 505.5v40.538l22.25-.269 22.25-.269v-15L785 530l-15.5-.5v-17l11.5-.5 11.5-.5.292-7.75.292-7.75H769v-15h31.084l-.292-7.75-.292-7.75-21.75-.27-21.75-.269V505.5m54.607-38.918c-.93 2.423-.691 76.737.251 78.223.567.894 2.686 1.208 6.735 1l5.907-.305.277-14.25.278-14.25H835.81l4.845 11.206c8.119 18.78 6.88 17.249 14.243 17.596 3.52.165 6.826-.126 7.347-.647.599-.599-1.822-6.879-6.551-17.001l-7.499-16.051 2.406-1.577c6.531-4.28 10.542-16.951 8.456-26.715-1.555-7.282-5.092-12.217-11.308-15.782-5.22-2.993-5.336-3.01-20.892-3.02-13.348-.008-15.732.223-16.25 1.573m60.632 38.668l.261 40.25 5.59.295c3.827.202 5.95-.139 6.732-1.08.769-.927 1.229-9.296 1.41-25.64l.268-24.264 14.52 25.345 14.52 25.344h10.96v-80h-13l-.5 24-.5 24-2.25-3.807c-1.237-2.094-2.25-3.942-2.25-4.107 0-.253-4.548-8.233-12.019-21.086-.959-1.65-3.849-6.712-6.422-11.25l-4.678-8.25h-12.904l.262 40.25m85.183-39.125c-.621 1.005-4.064 11.801-8.014 25.125-.774 2.613-2.083 7-2.908 9.75a1600.93 1600.93 0 00-2.886 9.75c-.762 2.612-3.428 11.261-5.923 19.22-2.496 7.958-4.32 14.821-4.055 15.25.265.429 3.128.78 6.361.78h5.879l2.885-9.25 2.886-9.25 11.683-.282c13.315-.321 11.939-1.248 15.266 10.282 2.399 8.31 2.77 8.641 9.314 8.295 6.683-.353 6.646-.061 1.937-15.295a6145.282 6145.282 0 01-10.873-35.5 4452.777 4452.777 0 00-6.198-20.25l-3.015-9.75h-5.821c-3.235 0-6.131.5-6.518 1.125m44.035.127c-.265.689-.363 18.802-.219 40.25l.262 38.998h12l.5-25.5c.557-28.422.051-27.249 6.669-15.454 1.557 2.776 7.533 13.259 13.279 23.296l10.449 18.249 5.051-.296 5.052-.295v-80l-6.232-.297-6.233-.298-.267 24.615-.268 24.614-13.872-24.567L1012.757 465h-5.91c-3.811 0-6.08.445-6.39 1.252m127.007-.02c-.268.7-.37 18.822-.226 40.27l.262 38.998 21.373.27c15.283.193 21.778-.065 22.792-.907 1.024-.85 1.338-3.012 1.127-7.77l-.292-6.593-15.75-.275-15.75-.276V512.066l11.25-.283 11.25-.283.292-7.75.292-7.75H1141v-15h30.084l-.292-7.75-.292-7.75-21.274-.27c-16.495-.209-21.383.016-21.762 1.002m-479.219 13.702c-4.944 1.238-9.544 4.865-11.537 9.094-4.7 9.974-4.183 26.484 1.075 34.312 3.802 5.661 8.211 7.994 15.095 7.988 9.784-.009 15.44-4.74 18.508-15.482 3.919-13.726-.429-29.714-9.333-34.318-3.714-1.921-9.73-2.615-13.808-1.594M824 491.134v12.135l7.091-.508c8.268-.591 11.697-2.61 13.794-8.119 1.223-3.212 1.183-4.176-.34-8.164-2.205-5.772-5.397-7.478-13.995-7.478H824v12.134m138-1.997c0 .296-1.345 4.998-2.989 10.45-1.643 5.452-2.993 10.437-3 11.078-.007.736 2.47 1.299 6.739 1.531 3.712.202 6.912.266 7.11.142.554-.345-5.996-21.711-6.986-22.788-.481-.522-.874-.708-.874-.413M204.019 541.25c-1.696 1.788-4.968 5.802-7.273 8.922-2.304 3.12-4.507 5.476-4.896 5.235-.388-.24-.998.484-1.355 1.608-.635 2-7.832 11.408-13.467 17.603-1.56 1.715-4.065 5.09-5.567 7.5-1.502 2.41-3.457 5.091-4.346 5.958-.888.866-4.315 5.269-7.615 9.783-3.3 4.514-7.521 9.88-9.379 11.924-1.858 2.045-4.108 4.842-5 6.217-2.764 4.262-5.424 7-6.801 7-.726 0-1.326.788-1.333 1.75-.007.962-2.369 4.723-5.25 8.357-2.88 3.634-10.608 13.422-17.172 21.75C108 663.186 102.052 670 101.346 670c-.706 0-1.046.619-.756 1.375.293.762-1.737 3.962-4.559 7.187-5.061 5.783-6.812 9.365-5.566 11.381.421.682 7.332 1.057 19.478 1.057h18.824l3.367-3.821c6.143-6.973 8.281-9.61 14.35-17.697 3.309-4.41 6.849-8.91 7.867-10 1.018-1.09 3.718-4.515 6-7.612 6.863-9.313 21.867-28.292 23.305-29.48.739-.611 1.344-1.473 1.344-1.916 0-.444.671-1.519 1.49-2.39.82-.871 5.819-7.118 11.109-13.881 5.29-6.764 9.993-12.164 10.452-12 1.436.512 18.949 23.171 18.949 24.517 0 .704.563 1.301 1.25 1.327 1.029.039 36.936 45.216 40.25 50.641.55.9 1.686 2.362 2.526 3.25.839.887 4.214 4.977 7.5 9.088 3.285 4.11 6.286 7.616 6.668 7.789.381.173.488.848.238 1.5-.345.895 4.45 1.114 19.603.895 21.553-.313 22.434-.551 19.896-5.382-.673-1.28-3.015-4.484-5.204-7.118-2.189-2.635-4.936-6.094-6.104-7.688-2.568-3.507-10.75-13.985-24.623-31.536-2.475-3.131-5.985-7.784-7.799-10.34-1.814-2.555-4.854-6.446-6.754-8.646-9.073-10.506-11.522-13.862-11.036-15.128.289-.755.021-1.372-.596-1.372-1.575 0-5.743-4.992-24.027-28.777a423.975 423.975 0 00-7.288-9.13c-2.2-2.669-6.475-8.142-9.5-12.162-6.549-8.702-12.936-15.931-14.077-15.931-.452 0-2.209 1.462-3.904 3.25m843.365 54.489c-3.137 2.14-9.433 18.449-11.854 30.708-1.398 7.081-1.656 11.982-1.238 23.5.612 16.859 2.601 25.761 8.63 38.628l3.948 8.425h5.065c5.833 0 6.208-.877 3.21-7.5-9.856-21.774-10.809-57.466-2.15-80.5 1.758-4.675 3.266-9.625 3.351-11 .138-2.237-.267-2.527-3.846-2.761-2.2-.143-4.502.082-5.116.5m159.337.511c-.246.688.119 2.375.811 3.75 5.106 10.147 9.474 31.408 9.452 45.998-.024 15.174-4.365 36.092-9.589 46.202-2.218 4.293-1.786 4.8 4.085 4.8 5.426 0 5.5-.041 7.613-4.183 7.646-14.988 10.162-26.879 10.117-47.817-.041-19.228-1.614-26.96-8.392-41.25l-4.15-8.75h-4.75c-2.897 0-4.926.488-5.197 1.25M1146 599.976c-17.757 2.795-30.027 19.574-29.985 41.002.06 30.553 18.942 47.098 46.294 40.563 11.075-2.646 10.691-1.834 10.691-22.597v-18.01l-11.25.283-11.25.283-.32 3.905c-.569 6.954.29 8.441 5.075 8.788l4.245.307.26 5c.143 2.75-.143 5.618-.636 6.374-1.291 1.981-12.792 1.906-16.624-.108-7.369-3.871-11.539-12.101-11.653-22.997-.239-22.719 12.083-32.53 32.301-25.719 3.347 1.127 6.215 1.915 6.373 1.75.159-.165.438-3.606.622-7.647.322-7.091.24-7.396-2.332-8.744-2.203-1.154-15.084-3.649-16.811-3.256-.275.063-2.525.433-5 .823M559 641v40.091l6.75-.295 6.75-.296v-79l-6.75-.296-6.75-.295V641m27.456-38.747c-.264.689-.362 18.576-.218 39.75l.262 38.497h13l.5-25c.275-13.75.779-24.55 1.119-24 .341.55 5.018 8.65 10.393 18 5.376 9.35 11.076 19.25 12.667 22 1.591 2.75 3.399 6.013 4.017 7.25.974 1.949 1.908 2.25 6.976 2.25h5.851l-.262-39.75-.261-39.75h-13l-.269 23.993-.268 23.994-5.232-9.141A5470.599 5470.599 0 01608 616.128l-8.5-15.077-6.281-.026c-4.131-.016-6.446.404-6.763 1.228m68 0c-.264.689-.362 18.576-.218 39.75l.262 38.497 6.75.296 6.75.295V601h-6.531c-4.311 0-6.695.426-7.013 1.253m21.752 6.48l.292 7.767 9.25.288 9.25.287v64.016l6.75-.295 6.75-.296.264-31.75.264-31.75 8.236-.015c4.53-.009 8.821-.387 9.535-.84.913-.579 1.211-2.882 1-7.735l-.299-6.91-25.792-.267-25.793-.267.293 7.767m59.267-6.528c-.275.715-.381 18.624-.237 39.798l.262 38.497 6.762.296 6.761.296-.261-39.796-.262-39.796-6.263-.298c-4.442-.211-6.408.08-6.762 1.003m44.244-.5c-.25.437-1.448 4.17-2.662 8.295-1.213 4.125-2.607 8.625-3.097 10-.491 1.375-3.422 11.04-6.515 21.477-3.092 10.438-6.932 23.019-8.534 27.96-1.601 4.94-2.911 9.584-2.911 10.32 0 1.007 1.549 1.265 6.25 1.041l6.25-.298 2.957-8.75 2.956-8.75h23.504l2.746 9 2.746 9h6.412c7.591 0 7.498 2.489.748-20-.908-3.025-2.048-6.85-2.534-8.5-.485-1.65-4.179-13.8-8.209-27l-7.326-24-6.163-.295c-3.389-.163-6.368.062-6.618.5m32.705.633c-.29.755-.391 4.25-.225 7.767l.301 6.395 9.236.287 9.236.288.264 31.712.264 31.713h13l.264-31.713.264-31.712 9.236-.288 9.236-.287v-15l-25.275-.267c-20.683-.219-25.37-.018-25.801 1.105m59.724-.016c-.861 1.038-1.103 11.585-.91 39.795l.262 38.383 6.762.296 6.761.296-.261-39.796-.262-39.796-5.59-.295c-3.89-.205-5.947.134-6.762 1.117m19.852.658c0 1.089.66 3.676 1.466 5.75 1.204 3.096 6.832 21.52 15.049 49.27.732 2.475 2.583 8.681 4.112 13.791l2.78 9.291 6.432-.291 6.432-.291 3.982-13c4.751-15.514 5.542-18.135 11.306-37.5.737-2.475 2.917-9.639 4.845-15.92 1.927-6.28 3.273-11.793 2.991-12.25-.282-.456-3.132-.83-6.333-.83-5.428 0-5.89.185-6.867 2.75-1.673 4.395-14.349 46.472-14.911 49.5-.281 1.513-.883 2.75-1.337 2.75-.831 0-1.6-2.368-10.874-33.5-6.933-23.274-5.857-21.5-13.052-21.5-5.334 0-6.021.226-6.021 1.98m67.686-1.333c-.377.378-.686 18.386-.686 40.02V681h45v-15h-14.418c-7.93 0-15.13-.273-16-.607-1.278-.49-1.582-2.31-1.582-9.468v-8.862l11.75-.281 11.75-.282v-14L984 632l-11.5-.5-.293-7.224-.294-7.223 15.294-.277 15.293-.276v-15l-21.064-.269c-11.585-.148-21.373.039-21.75.416M1066 641v40h45v-15h-31V647.063l11.75-.281 11.75-.282.312-4.934c.614-9.694.779-9.566-12.331-9.566H1080v-14.947l14.75-.276 14.75-.277.292-7.75.292-7.75H1066v40m118.709-39.376c-.39.39-.709 18.43-.709 40.088v39.379l6.75-.295 6.75-.296v-79l-6.041-.292c-3.323-.161-6.36.026-6.75.416M785.115 627c-1.776 4.858-6.115 19.175-6.115 20.176 0 .453 3.15.824 7 .824 7.608 0 7.979-.357 5.903-5.685-1.136-2.916-3.444-10.592-4.755-15.815l-.753-3-1.28 3.5m-587.12 11.91c-11.504 4.389-20.376 12.917-25.5 24.508-2.877 6.508-5.495 19.164-5.495 26.566 0 13.356 5.454 28.705 13.508 38.016 6.131 7.088 11.076 10.32 19.123 12.498 7.41 2.006 12.142 1.652 20.979-1.567 4.622-1.684 7.297-3.607 12.428-8.936 7.446-7.734 10.954-14.236 13.484-24.995.97-4.125 1.964-8.175 2.21-9 .707-2.378.833-13.001.154-13.001-.338.001-.905-2.119-1.26-4.71-1.366-9.966-6.314-20.832-12.583-27.631-10.721-11.626-25.274-16.242-37.048-11.748" fill="undefined" fill-rule="evenodd"/></svg>